<svg width="351" height="288" viewBox="0 0 351 288" fill="none" xmlns="http://www.w3.org/2000/svg">
<path d="M341.283 283.372C341.283 288.282 265.899 287.241 172.908 287.241C79.9172 287.241 4.53317 288.282 4.53317 283.372C4.53317 278.463 79.9172 277.101 172.908 277.101C265.899 277.101 341.283 278.462 341.283 283.372Z" fill="#787878"/>
<path d="M173.215 158.131C173.215 158.131 144.001 149.932 134.114 117.118C130.427 104.883 129.219 94.6251 129.219 94.6251C129.219 94.6251 142.234 98.9335 148.837 101.058C170.718 108.099 180.698 129.225 185.082 145.179C189.466 161.133 173.215 158.131 173.215 158.131Z" fill="#9FBEC2"/>
<path d="M188.439 143.203C188.439 143.203 165.197 123.193 169.469 89.1142C171.063 76.407 174.11 66.5642 174.11 66.5642C174.11 66.5642 184.2 76.0751 189.343 80.8442C206.389 96.6501 206.924 120.143 204.462 136.53C201.999 152.916 188.439 143.203 188.439 143.203Z" fill="#9FBEC2"/>
<path d="M284.084 145.816C284.084 145.816 280.946 114.76 307.044 93.3991C316.776 85.4344 325.614 80.5685 325.614 80.5685C325.614 80.5685 326.419 94.6415 326.883 101.759C328.42 125.346 312.923 142.573 300.081 152.552C287.238 162.53 284.084 145.816 284.084 145.816Z" fill="#9FBEC2"/>
<path d="M284.487 154.531C284.487 154.531 294.185 124.951 326.54 116.752C338.605 113.695 348.606 113.071 348.606 113.071C348.606 113.071 343.651 126.209 341.196 132.878C333.061 154.98 312.013 163.979 296.307 167.53C280.601 171.08 284.487 154.531 284.487 154.531Z" fill="#9FBEC2"/>
<path d="M282.278 219.032C282.278 219.032 295.556 190.97 328.661 187.097C341.006 185.652 351.002 186.349 351.002 186.349C351.002 186.349 344.461 198.728 341.201 205.02C330.398 225.869 308.409 232.026 292.392 233.48C276.376 234.934 282.278 219.032 282.278 219.032Z" fill="#9FBEC2"/>
<path d="M78.1103 211.422C78.1103 211.422 48.2798 216.762 25.8434 191.359C17.4772 181.887 12.1693 173.124 12.1693 173.124C12.1693 173.124 25.7283 171.339 32.5817 170.379C55.2945 167.195 73.0128 181.969 83.5386 194.505C94.0644 207.041 78.1103 211.422 78.1103 211.422Z" fill="#9FBEC2"/>
<path d="M92.1192 184.01C92.1192 184.01 65.7817 168.611 64.0743 134.294C63.4375 121.499 64.7292 111.252 64.7292 111.252C64.7292 111.252 76.306 118.748 82.1932 122.492C101.705 134.898 106.305 157.913 106.725 174.49C107.145 191.067 92.1192 184.01 92.1192 184.01Z" fill="#9FBEC2"/>
<path d="M80.7413 200.832C80.7413 200.832 50.9942 195.022 38.6398 163.11C34.033 151.21 32.0492 141.082 32.0492 141.082C32.0492 141.082 45.3523 144.324 52.0959 145.908C74.446 151.155 86.0023 171.408 91.5874 186.958C97.1717 202.51 80.7413 200.832 80.7413 200.832Z" fill="#9FBEC2"/>
<path d="M44.8892 88.2999H40.689V280.85H44.8892V88.2999Z" fill="#404040"/>
<path d="M0.877165 101.706C0.537185 101.706 0.261566 101.422 0.261566 101.071V90.7668C0.261566 90.4162 0.537185 90.132 0.877165 90.132C1.21715 90.132 1.49276 90.4162 1.49276 90.7668V101.07C1.49276 101.421 1.21715 101.706 0.877165 101.706Z" fill="#DE938C"/>
<path d="M3.98291 101.706C3.64293 101.706 3.36731 101.422 3.36731 101.071V90.7668C3.36731 90.4162 3.64293 90.132 3.98291 90.132C4.32289 90.132 4.59851 90.4162 4.59851 90.7668V101.07C4.59851 101.421 4.32289 101.706 3.98291 101.706Z" fill="#DE938C"/>
<path d="M7.08676 101.706C6.74678 101.706 6.47116 101.422 6.47116 101.071V90.7668C6.47116 90.4162 6.74678 90.132 7.08676 90.132C7.42674 90.132 7.70236 90.4162 7.70236 90.7668V101.07C7.70236 101.421 7.42674 101.706 7.08676 101.706Z" fill="#DE938C"/>
<path d="M10.1896 101.706C9.84966 101.706 9.57404 101.422 9.57404 101.071V90.7668C9.57404 90.4162 9.84966 90.132 10.1896 90.132C10.5296 90.132 10.8052 90.4162 10.8052 90.7668V101.07C10.806 101.421 10.5296 101.706 10.1896 101.706Z" fill="#DE938C"/>
<path d="M13.2944 101.706C12.9545 101.706 12.6788 101.422 12.6788 101.071V90.7668C12.6788 90.4162 12.9545 90.132 13.2944 90.132C13.6344 90.132 13.91 90.4162 13.91 90.7668V101.07C13.9108 101.421 13.6352 101.706 13.2944 101.706Z" fill="#DE938C"/>
<path d="M16.3992 101.706C16.0592 101.706 15.7836 101.422 15.7836 101.071V90.7668C15.7836 90.4162 16.0592 90.132 16.3992 90.132C16.7392 90.132 17.0148 90.4162 17.0148 90.7668V101.07C17.0148 101.421 16.7392 101.706 16.3992 101.706Z" fill="#DE938C"/>
<path d="M19.505 101.706C19.165 101.706 18.8894 101.422 18.8894 101.071V90.7668C18.8894 90.4162 19.165 90.132 19.505 90.132C19.845 90.132 20.1206 90.4162 20.1206 90.7668V101.07C20.1206 101.421 19.845 101.706 19.505 101.706Z" fill="#DE938C"/>
<path d="M22.6098 101.706C22.2698 101.706 21.9942 101.422 21.9942 101.071V90.7668C21.9942 90.4162 22.2698 90.132 22.6098 90.132C22.9498 90.132 23.2254 90.4162 23.2254 90.7668V101.07C23.2254 101.421 22.9498 101.706 22.6098 101.706Z" fill="#DE938C"/>
<path d="M25.7127 101.706C25.3727 101.706 25.0971 101.422 25.0971 101.071V90.7668C25.0971 90.4162 25.3727 90.132 25.7127 90.132C26.0527 90.132 26.3283 90.4162 26.3283 90.7668V101.07C26.3283 101.421 26.0527 101.706 25.7127 101.706Z" fill="#DE938C"/>
<path d="M28.8174 101.706C28.4775 101.706 28.2018 101.422 28.2018 101.071V90.7668C28.2018 90.4162 28.4775 90.132 28.8174 90.132C29.1574 90.132 29.433 90.4162 29.433 90.7668V101.07C29.4338 101.421 29.1574 101.706 28.8174 101.706Z" fill="#DE938C"/>
<path d="M31.9222 101.706C31.5823 101.706 31.3066 101.422 31.3066 101.071V90.7668C31.3066 90.4162 31.5823 90.132 31.9222 90.132C32.2622 90.132 32.5378 90.4162 32.5378 90.7668V101.07C32.5386 101.421 32.263 101.706 31.9222 101.706Z" fill="#DE938C"/>
<path d="M35.0299 101.706C34.6899 101.706 34.4143 101.422 34.4143 101.071V90.7668C34.4143 90.4162 34.6899 90.132 35.0299 90.132C35.3699 90.132 35.6455 90.4162 35.6455 90.7668V101.07C35.6455 101.421 35.3699 101.706 35.0299 101.706Z" fill="#DE938C"/>
<path d="M38.1337 101.706C37.7937 101.706 37.5181 101.422 37.5181 101.071V90.7668C37.5181 90.4162 37.7937 90.132 38.1337 90.132C38.4737 90.132 38.7493 90.4162 38.7493 90.7668V101.07C38.7493 101.421 38.4737 101.706 38.1337 101.706Z" fill="#DE938C"/>
<path d="M41.2357 101.706C40.8957 101.706 40.6201 101.422 40.6201 101.071V90.7668C40.6201 90.4162 40.8957 90.132 41.2357 90.132C41.5757 90.132 41.8513 90.4162 41.8513 90.7668V101.07C41.8513 101.421 41.5757 101.706 41.2357 101.706Z" fill="#DE938C"/>
<path d="M44.3404 101.706C44.0005 101.706 43.7249 101.422 43.7249 101.071V90.7668C43.7249 90.4162 44.0005 90.132 44.3404 90.132C44.6804 90.132 44.9561 90.4162 44.9561 90.7668V101.07C44.9561 101.421 44.6804 101.706 44.3404 101.706Z" fill="#DE938C"/>
<path d="M47.4443 101.706C47.1043 101.706 46.8287 101.422 46.8287 101.071V90.7668C46.8287 90.4162 47.1043 90.132 47.4443 90.132C47.7843 90.132 48.0599 90.4162 48.0599 90.7668V101.07C48.0599 101.421 47.7843 101.706 47.4443 101.706Z" fill="#DE938C"/>
<path d="M50.55 101.706C50.2101 101.706 49.9344 101.422 49.9344 101.071V90.7668C49.9344 90.4162 50.2101 90.132 50.55 90.132C50.89 90.132 51.1656 90.4162 51.1656 90.7668V101.07C51.1664 101.421 50.8908 101.706 50.55 101.706Z" fill="#DE938C"/>
<path d="M53.6558 101.706C53.3158 101.706 53.0402 101.422 53.0402 101.071V90.7668C53.0402 90.4162 53.3158 90.132 53.6558 90.132C53.9958 90.132 54.2714 90.4162 54.2714 90.7668V101.07C54.2714 101.421 53.9958 101.706 53.6558 101.706Z" fill="#DE938C"/>
<path d="M56.7596 101.706C56.4197 101.706 56.144 101.422 56.144 101.071V90.7668C56.144 90.4162 56.4197 90.132 56.7596 90.132C57.0996 90.132 57.3752 90.4162 57.3752 90.7668V101.07C57.3752 101.421 57.0996 101.706 56.7596 101.706Z" fill="#DE938C"/>
<path d="M59.8644 101.706C59.5245 101.706 59.2488 101.422 59.2488 101.071V90.7668C59.2488 90.4162 59.5245 90.132 59.8644 90.132C60.2044 90.132 60.48 90.4162 60.48 90.7668V101.07C60.48 101.421 60.2044 101.706 59.8644 101.706Z" fill="#DE938C"/>
<path d="M62.9692 101.706C62.6292 101.706 62.3536 101.422 62.3536 101.071V90.7668C62.3536 90.4162 62.6292 90.132 62.9692 90.132C63.3092 90.132 63.5848 90.4162 63.5848 90.7668V101.07C63.5848 101.421 63.3092 101.706 62.9692 101.706Z" fill="#DE938C"/>
<path d="M66.074 101.706C65.734 101.706 65.4584 101.422 65.4584 101.071V90.7668C65.4584 90.4162 65.734 90.132 66.074 90.132C66.414 90.132 66.6896 90.4162 66.6896 90.7668V101.07C66.6896 101.421 66.414 101.706 66.074 101.706Z" fill="#DE938C"/>
<path d="M69.1779 101.706C68.8379 101.706 68.5623 101.422 68.5623 101.071V90.7668C68.5623 90.4162 68.8379 90.132 69.1779 90.132C69.5178 90.132 69.7935 90.4162 69.7935 90.7668V101.07C69.7942 101.421 69.5178 101.706 69.1779 101.706Z" fill="#DE938C"/>
<path d="M72.2827 101.706C71.9427 101.706 71.6671 101.422 71.6671 101.071V90.7668C71.6671 90.4162 71.9427 90.132 72.2827 90.132C72.6226 90.132 72.8983 90.4162 72.8983 90.7668V101.07C72.899 101.421 72.6234 101.706 72.2827 101.706Z" fill="#DE938C"/>
<path d="M75.3874 101.706C75.0475 101.706 74.7719 101.422 74.7719 101.071V90.7668C74.7719 90.4162 75.0475 90.132 75.3874 90.132C75.7274 90.132 76.003 90.4162 76.003 90.7668V101.07C76.003 101.421 75.7274 101.706 75.3874 101.706Z" fill="#DE938C"/>
<path d="M78.4913 101.706C78.1513 101.706 77.8757 101.422 77.8757 101.071V90.7668C77.8757 90.4162 78.1513 90.132 78.4913 90.132C78.8312 90.132 79.1069 90.4162 79.1069 90.7668V101.07C79.1069 101.421 78.8312 101.706 78.4913 101.706Z" fill="#DE938C"/>
<path d="M81.5961 101.706C81.2561 101.706 80.9805 101.422 80.9805 101.071V90.7668C80.9805 90.4162 81.2561 90.132 81.5961 90.132C81.9361 90.132 82.2117 90.4162 82.2117 90.7668V101.07C82.2117 101.421 81.9361 101.706 81.5961 101.706Z" fill="#DE938C"/>
<path d="M84.7009 101.706C84.3609 101.706 84.0853 101.422 84.0853 101.071V90.7668C84.0853 90.4162 84.3609 90.132 84.7009 90.132C85.0408 90.132 85.3165 90.4162 85.3165 90.7668V101.07C85.3165 101.421 85.0408 101.706 84.7009 101.706Z" fill="#DE938C"/>
<path d="M66.8144 41.5436H18.7628C18.8386 40.2316 18.9067 38.9118 18.9294 37.553H66.6554C66.6781 38.9118 66.7387 40.2316 66.8144 41.5436Z" fill="#DE938C"/>
<path d="M85.5781 90.4294C85.5781 90.4294 80.1717 98.7697 59.1747 92.0537C59.1747 92.0537 56.0021 98.7696 42.7891 98.7696C29.5836 98.7696 26.4109 92.0537 26.4109 92.0537C5.40637 98.7697 0 90.4294 0 90.4294C0 90.4294 0.908633 89.5235 2.33216 87.7352C7.03434 81.8158 17.317 66.2129 18.7633 41.5435H66.8148C68.2686 66.2129 78.5513 81.8158 83.2459 87.7352C84.6695 89.5235 85.5781 90.4294 85.5781 90.4294Z" fill="#DE938C"/>
<path d="M83.2452 87.7352C80.0877 89.6406 73.2503 91.671 60.0372 87.618C59.7495 87.5321 59.4618 87.4462 59.174 87.3525C59.174 87.3525 59.1134 87.4775 58.9771 87.7039C58.1064 89.0784 54.1765 94.0685 42.7883 94.0685C31.385 94.0685 27.4627 89.0627 26.6071 87.6961C26.4708 87.4775 26.4102 87.3525 26.4102 87.3525C26.1149 87.4462 25.8272 87.5399 25.5394 87.6258C12.334 91.671 5.49649 89.6406 2.33142 87.7352C7.0336 81.8158 17.3163 66.2129 18.7625 41.5435H66.8141C68.2679 66.2129 78.5506 81.8158 83.2452 87.7352Z" fill="#F5E5D6"/>
<path d="M20.3401 57.002C19.3633 63.3252 17.175 69.4016 13.9077 74.8462C13.6502 75.2749 14.3052 75.6669 14.5611 75.2405C17.8595 69.7444 20.0834 63.593 21.07 57.2098C21.1457 56.7178 20.4165 56.5061 20.3401 57.002Z" fill="#FF8C70"/>
<path d="M22.4468 62.4044C21.9667 65.6944 21.2421 68.9399 20.2797 72.116C20.1335 72.597 20.865 72.8024 21.0096 72.3237C21.972 69.1477 22.6959 65.9021 23.1767 62.6121C23.2486 62.1201 22.5194 61.9085 22.4468 62.4044Z" fill="#FF8C70"/>
<path d="M65.2381 57.002C66.2148 63.3252 68.4031 69.4016 71.6704 74.8462C71.9279 75.2749 71.2729 75.6669 71.0162 75.2405C67.7179 69.7444 65.494 63.593 64.5074 57.2098C64.4316 56.7178 65.1616 56.5061 65.2381 57.002Z" fill="#FF8C70"/>
<path d="M63.131 62.4044C63.6111 65.6944 64.3357 68.9399 65.2981 72.116C65.4435 72.597 64.7128 72.8024 64.5682 72.3237C63.6058 69.1477 62.8812 65.9021 62.4011 62.6121C62.3292 62.1201 63.0584 61.9085 63.131 62.4044Z" fill="#FF8C70"/>
<path d="M34.6944 41.5435C34.1795 76.0994 27.0316 87.1026 26.7211 87.579C26.706 87.6024 26.6833 87.6258 26.6606 87.6493L26.6076 87.6961C26.4713 87.4775 26.4107 87.3525 26.4107 87.3525C26.1154 87.4462 25.8277 87.5399 25.5399 87.6258L26.123 87.0948C26.5848 86.3607 33.4223 74.8343 33.9372 41.5435H34.6944Z" fill="#FF8C70"/>
<path d="M60.0379 87.618C59.7502 87.5321 59.4625 87.4462 59.1747 87.3525C59.1747 87.3525 59.1142 87.4775 58.9779 87.7039L58.9173 87.6493C58.8946 87.6258 58.8719 87.6024 58.8567 87.579C58.5463 87.1026 51.3983 76.0994 50.8835 41.5435H51.6406C52.1555 74.8343 58.993 86.3607 59.4549 87.0948L60.0379 87.618Z" fill="#FF8C70"/>
<path d="M334.673 180.314C334.673 188.881 331.841 194.3 330.433 196.463C329.994 197.135 329.244 197.533 328.456 197.533H158.875C158.088 197.533 157.346 197.135 156.907 196.463C155.498 194.3 152.659 188.881 152.659 180.314C152.659 171.739 155.498 166.32 156.907 164.157C157.346 163.485 158.088 163.087 158.875 163.087H328.456C329.244 163.087 329.994 163.485 330.433 164.157C331.841 166.32 334.673 171.739 334.673 180.314Z" fill="#DE938C"/>
<path d="M285.112 189.636H202.222C197.228 189.636 193.18 185.46 193.18 180.31C193.18 175.16 197.228 170.984 202.222 170.984H285.112C290.106 170.984 294.155 175.16 294.155 180.31C294.155 185.46 290.106 189.636 285.112 189.636Z" fill="#F5E5D6"/>
<path d="M315.593 180.314C315.593 188.365 313.51 194.089 311.708 197.533H308.195C309.664 195.159 312.564 189.334 312.564 180.314C312.564 171.279 309.664 165.461 308.195 163.087H311.708C313.518 166.538 315.593 172.255 315.593 180.314Z" fill="#F5E5D6"/>
<path d="M174.778 180.314C174.778 189.334 177.67 195.159 179.147 197.533H175.626C173.831 194.089 171.749 188.365 171.749 180.314C171.749 172.255 173.824 166.538 175.634 163.087H179.147C177.67 165.461 174.778 171.279 174.778 180.314Z" fill="#F5E5D6"/>
<path d="M326.974 260.21C326.875 260.726 326.739 261.249 326.565 261.772C325.868 263.943 324.619 266.184 323.218 268.246C322.862 268.785 322.491 269.3 322.113 269.808C319.197 273.759 316.093 276.734 316.093 276.734H151.441C152.668 274.954 153.546 272.557 154.159 269.808C154.273 269.3 154.379 268.777 154.477 268.246C154.848 266.208 155.091 264.013 155.25 261.772C155.28 261.257 155.31 260.733 155.333 260.21C155.431 258.055 155.454 255.868 155.424 253.736C155.416 253.213 155.409 252.69 155.393 252.174C155.333 249.886 155.212 247.692 155.068 245.701C155.03 245.162 154.992 244.638 154.947 244.139C154.561 239.297 154.084 235.962 154.084 235.962H305.977C305.977 235.962 311.262 239.586 316.54 244.139C317.138 244.646 317.728 245.17 318.319 245.701C320.651 247.817 322.862 250.05 324.483 252.174C324.891 252.705 325.262 253.229 325.58 253.736C326.164 254.65 326.603 255.532 326.86 256.352C327.231 257.539 327.239 258.844 326.974 260.21Z" fill="#FDFFF7"/>
<path d="M323.216 268.246C322.861 268.785 322.489 269.3 322.111 269.808H154.158C154.271 269.3 154.377 268.777 154.476 268.246H323.216Z" fill="#F0F0D3"/>
<path d="M326.971 260.21C326.873 260.726 326.737 261.249 326.563 261.772H155.247C155.278 261.257 155.308 260.733 155.331 260.21H326.971Z" fill="#F0F0D3"/>
<path d="M325.579 253.736H155.422C155.415 253.213 155.407 252.69 155.392 252.174H324.481C324.89 252.705 325.261 253.229 325.579 253.736Z" fill="#F0F0D3"/>
<path d="M318.317 245.701H155.066C155.028 245.162 154.991 244.638 154.945 244.139H316.538C317.136 244.646 317.727 245.17 318.317 245.701Z" fill="#F0F0D3"/>
<path d="M305.614 273.987H147.503C144.995 273.987 142.96 276.085 142.96 278.673C142.96 281.261 144.995 283.358 147.503 283.358H305.614C305.736 283.358 305.856 283.351 305.978 283.349V273.968C305.855 273.972 305.736 273.987 305.614 273.987Z" fill="#DE938C"/>
<path d="M330.868 257.313C330.868 243.077 319.735 231.479 305.978 231.277V240.657C314.724 240.86 321.781 248.246 321.781 257.313C321.781 266.38 314.724 273.766 305.978 273.968V283.349C319.735 283.147 330.868 271.548 330.868 257.313Z" fill="#F5E5D6"/>
<path d="M305.614 231.267H147.503C144.995 231.267 142.96 233.365 142.96 235.952C142.96 238.539 144.995 240.638 147.503 240.638H305.614C305.737 240.638 305.856 240.654 305.978 240.657V231.276C305.856 231.275 305.736 231.267 305.614 231.267Z" fill="#DE938C"/>
<path d="M323.535 155.192H159.789C157.732 155.192 155.983 153.702 155.405 151.637C155.27 151.166 155.199 150.67 155.199 150.147V138.383C155.199 137.86 155.27 137.354 155.405 136.884C155.99 134.828 157.732 133.33 159.789 133.33H322.229C321.928 134.497 321.699 135.683 321.532 136.884C321.445 137.46 321.381 138.043 321.326 138.627C321.184 140.205 321.144 141.799 321.216 143.385C321.239 143.969 321.271 144.544 321.319 145.128C321.453 146.731 321.69 148.326 322.023 149.895C322.142 150.479 322.276 151.062 322.434 151.638C322.744 152.848 323.108 154.033 323.535 155.192Z" fill="#FDFFF7"/>
<path d="M321.533 136.884C321.446 137.46 321.382 138.043 321.327 138.627H155.199V138.384C155.199 137.86 155.27 137.355 155.405 136.885L321.533 136.884Z" fill="#F0F0D3"/>
<path d="M321.319 145.128H155.199V143.385H321.216C321.24 143.969 321.272 144.544 321.319 145.128Z" fill="#F0F0D3"/>
<path d="M322.435 151.637H155.405C155.27 151.166 155.199 150.67 155.199 150.147V149.894H322.023C322.142 150.478 322.276 151.062 322.435 151.637Z" fill="#F0F0D3"/>
<path d="M155.196 138.381V150.15C155.196 151.727 155.863 153.141 156.9 154.07C157.688 154.773 158.687 155.195 159.785 155.195H313.935V163.09H155.355C153.432 163.09 151.66 162.387 150.229 161.216C148.094 159.482 146.708 156.702 146.708 153.563V134.969C146.708 131.822 148.094 129.042 150.229 127.308C151.668 126.136 153.44 125.434 155.363 125.434H313.935V133.329H159.793C158.695 133.329 157.695 133.75 156.908 134.453C155.863 135.383 155.196 136.796 155.196 138.381Z" fill="#4A878F"/>
<path d="M327.602 125.434H313.934V133.329H327.602C329.582 133.329 331.186 131.562 331.186 129.381C331.186 127.201 329.582 125.434 327.602 125.434Z" fill="#D6E7E9"/>
<path d="M327.602 155.192H313.934V163.087H327.602C329.582 163.087 331.186 161.319 331.186 159.139C331.187 156.96 329.582 155.192 327.602 155.192Z" fill="#D6E7E9"/>
<path d="M154.833 209.138V219.68C154.833 222.178 156.796 224.202 159.217 224.202H319.788C321.682 224.202 323.218 225.785 323.218 227.739C323.218 229.693 321.682 231.277 319.788 231.277H154.984C150.411 231.277 146.708 227.45 146.708 222.741V206.077C146.708 201.358 150.417 197.533 154.992 197.533H319.788C321.682 197.533 323.218 199.117 323.218 201.071C323.218 203.025 321.682 204.608 319.788 204.608H159.225C156.799 204.608 154.833 206.636 154.833 209.138Z" fill="#488094"/>
<path d="M315.897 224.202H159.225C157.257 224.202 155.583 222.866 155.031 221.016C154.902 220.594 154.834 220.149 154.834 219.68V209.138C154.834 208.669 154.902 208.216 155.031 207.795C155.591 205.952 157.257 204.608 159.225 204.608H314.647C314.359 205.655 314.14 206.717 313.981 207.795C313.898 208.31 313.837 208.833 313.784 209.356C313.648 210.77 313.61 212.199 313.678 213.62C313.701 214.143 313.731 214.659 313.776 215.182C313.905 216.619 314.132 218.048 314.45 219.454C314.564 219.977 314.693 220.5 314.844 221.016C315.139 222.101 315.488 223.163 315.897 224.202Z" fill="#FDFFF7"/>
<path d="M313.981 207.795C313.898 208.31 313.837 208.833 313.784 209.356H154.834V209.138C154.834 208.669 154.902 208.216 155.031 207.795H313.981Z" fill="#F0F0D3"/>
<path d="M313.776 215.182H154.834V213.62H313.678C313.701 214.143 313.731 214.659 313.776 215.182Z" fill="#F0F0D3"/>
<path d="M314.844 221.016H155.031C154.902 220.594 154.834 220.149 154.834 219.68V219.454H314.45C314.564 219.977 314.693 220.5 314.844 221.016Z" fill="#F0F0D3"/>
<path d="M245.725 207.798C245.718 208.227 245.703 208.75 245.672 209.36C245.597 211.32 245.483 214.162 245.347 217.505C245.233 220.339 245.104 223.541 244.968 226.86C244.393 240.995 243.726 257.316 243.726 257.316L234.837 249.593L225.963 257.316C225.963 257.316 225.781 252.951 225.523 246.781C225.417 244.173 225.296 241.245 225.167 238.183C224.728 227.329 224.221 214.849 224.001 209.36C223.979 208.75 223.948 208.227 223.948 207.798H245.725Z" fill="#488094"/>
<path d="M304.3 158.018C304.262 158.276 304.224 158.526 304.187 158.784C302.013 172.278 293.359 186.905 288.142 194.753C287.816 195.237 287.513 195.69 287.225 196.12C285.34 198.876 284.098 200.501 284.098 200.501C281.721 195.229 273.725 190.763 267.569 187.99C267.092 187.772 266.622 187.569 266.175 187.373C262.571 185.827 259.891 184.945 259.891 184.945C259.891 184.945 260.678 183.602 261.844 181.282C262.079 180.806 262.329 180.298 262.594 179.744C265.857 172.958 270.991 160.478 271.597 147.984C272.118 137.229 263.379 129.43 255.976 124.786C251.434 121.937 244.133 117.699 244.133 117.699L245.317 117.184L257.444 117.996L259.428 117.699L282.515 114.185C282.515 114.185 295.584 120.198 301.672 136.449C301.763 136.699 301.854 136.941 301.937 137.199C303.383 141.268 304.383 145.969 304.648 151.357C304.754 153.513 304.618 155.746 304.3 158.018Z" fill="#488094"/>
<path d="M288.141 194.753C287.815 195.237 287.513 195.69 287.225 196.12C285.173 192.996 282.689 190.177 279.842 187.795C277.283 185.648 274.413 183.828 271.263 182.774C268.219 181.759 265.031 181.392 261.844 181.282C262.078 180.806 262.328 180.298 262.593 179.744C266.182 179.923 269.779 180.439 273.126 181.813C279.024 184.242 284.045 188.927 287.74 194.167C287.876 194.363 288.012 194.558 288.141 194.753Z" fill="#2C301C"/>
<path d="M274.346 169.1C272.241 175.456 269.977 181.751 267.569 187.99C267.092 187.772 266.622 187.569 266.176 187.373C268.773 180.626 271.256 173.817 273.467 166.921C275.618 160.182 277.337 153.145 276.693 146C276.39 142.658 275.542 139.315 274.02 136.332C272.407 133.169 270.015 130.553 267.637 127.992C264.389 124.493 261.004 121.143 257.445 117.996L259.429 117.699C263.359 121.237 267.092 125.017 270.613 128.976C272.922 131.576 274.967 134.356 276.277 137.644C277.526 140.776 278.147 144.134 278.306 147.507C278.654 154.91 276.648 162.165 274.346 169.1Z" fill="#2C301C"/>
<path d="M245.12 118.105C243.399 119.988 238.142 127.102 237.267 128.685C235.121 132.568 233.687 136.859 232.506 141.143C231.142 146.093 230.142 151.147 229.323 156.221C228.523 161.179 227.904 166.167 227.409 171.167C227.011 175.18 226.693 179.202 226.453 183.227C226.408 183.907 226.37 184.547 226.34 185.141C226.173 188.225 226.128 190.076 226.128 190.076C224.651 188.975 222.985 188.124 221.221 187.483C220.714 187.296 220.207 187.124 219.692 186.976C209.28 183.907 196.211 186.992 196.211 186.992C196.211 186.992 195.817 184.852 195.355 181.439C195.28 180.947 195.212 180.432 195.143 179.893C194.326 173.56 193.432 163.97 193.977 155.278C193.992 155.02 194.008 154.771 194.03 154.513C194.189 152.24 194.454 150.038 194.856 147.984C195.795 143.15 197.68 138.137 199.83 133.529C199.944 133.28 200.058 133.037 200.179 132.795C204.813 123.049 210.484 115.31 210.484 115.31C210.484 115.31 228.301 114.194 239.03 115.381C239.712 115.459 240.363 115.545 240.976 115.646C241.976 115.799 247.319 116.464 246.532 118.366C246.412 118.658 246.203 118.9 245.993 119.132C245.977 119.148 245.136 118.087 245.12 118.105Z" fill="#488094"/>
<path d="M226.453 183.227C226.408 183.906 226.37 184.546 226.34 185.14C224.757 183.82 222.978 182.844 220.911 182.219C217.572 181.22 214.035 180.767 210.583 180.533C205.487 180.181 200.368 180.493 195.355 181.438C195.28 180.946 195.212 180.431 195.143 179.892C197.264 179.494 199.406 179.205 201.564 179.033C205.29 178.729 209.038 178.768 212.756 179.15C216.262 179.517 219.972 180.033 223.266 181.399C224.417 181.884 225.477 182.5 226.453 183.227Z" fill="#2C301C"/>
<path d="M240.977 115.646C237.675 118.652 234.828 122.174 232.436 126.001C226.075 136.176 223.13 148.148 221.835 160.072C220.851 169.162 220.654 178.346 221.222 187.483C220.714 187.295 220.207 187.124 219.692 186.975C219.488 183.656 219.397 180.329 219.404 177.003C219.442 163.93 220.676 150.428 225.023 138.058C228.021 129.554 232.648 121.573 239.031 115.38C239.712 115.458 240.363 115.544 240.977 115.646Z" fill="#2C301C"/>
<path d="M218.348 78.9343C220.237 72.4503 225.477 67.5914 231.931 66.3552C234.383 65.8851 236.837 65.5149 238.772 65.4165C243.573 65.1729 255.892 64.0968 264.197 64.6262C268.115 64.8761 271.734 66.9628 273.892 70.3449C281.804 82.7484 281.865 109.366 283.81 114.834C271.444 120.631 215.617 120.201 210.484 115.309C209.65 110.101 214.859 90.9059 218.348 78.9343Z" fill="#1A1A1A"/>
<path d="M257.961 65.479C257.961 65.479 245.83 77.9113 236.57 66.7051C237.017 66.3927 237.335 65.8304 237.562 65.1979C238.153 63.5658 238.137 61.3948 238.137 61.3948L253.016 57.3105C253.016 57.3105 253.357 59.0051 254.326 60.9809C255.099 62.5349 256.257 64.2686 257.961 65.479Z" fill="#FFDAC3"/>
<path d="M253.017 57.3105L238.138 61.3948C238.138 61.3948 238.153 63.5658 237.562 65.1979C237.956 65.2916 238.365 65.3619 238.774 65.4165C240.387 65.6118 242.03 65.5649 243.635 65.3228C246.899 64.8386 250.033 63.5657 252.896 61.8946C253.388 61.6134 253.872 61.3167 254.327 60.9809C253.357 59.0051 253.017 57.3105 253.017 57.3105Z" fill="#F1B297"/>
<path d="M271.226 40.4738C270.333 47.3538 263.124 46.7134 263.124 46.7134C261.701 59.4581 251.645 63.5892 231.996 62.5818C224.197 62.1757 220.373 59.8017 218.684 56.8342C217.261 54.3587 217.329 51.4771 217.798 49.0093C218.192 46.9946 218.843 45.2531 219.184 44.2379C219.896 42.0825 219.101 38.709 218.283 36.21C217.261 33.0629 217.511 29.5643 219.154 26.714C225.015 16.5698 240.083 17.9676 246.314 18.8266C253.606 19.834 262.624 35.3666 262.624 35.3666C267.455 32.4459 272.112 33.6017 271.226 40.4738Z" fill="#FFDAC4"/>
<path d="M242.748 43.5421C243.171 44.8361 242.808 46.1301 241.938 46.4323C241.068 46.7345 240.019 45.931 239.597 44.637C239.174 43.343 239.537 42.049 240.407 41.7468C241.277 41.4446 242.325 42.2481 242.748 43.5421Z" fill="#1A1A1A"/>
<path d="M227.284 45.4273C227.706 46.7212 227.344 48.0152 226.474 48.3175C225.604 48.6197 224.556 47.8161 224.132 46.5221C223.709 45.2281 224.073 43.9341 224.943 43.6319C225.813 43.3297 226.861 44.1333 227.284 45.4273Z" fill="#1A1A1A"/>
<path d="M233.844 50.1127C232.498 50.7648 230.945 49.741 230.945 48.2182C230.945 46.5962 232.553 45.9559 233.804 45.5084C234.043 45.4233 234.225 45.1695 234.143 44.8985C233.758 43.6225 233.428 42.3316 233.152 41.0267C233.02 40.4019 232.089 40.662 232.221 41.2867C232.466 42.4433 232.76 43.5865 233.09 44.7197C232.329 45.0055 231.577 45.3436 230.976 45.9113C230.245 46.6025 229.886 47.5981 230.009 48.6134C230.266 50.7453 232.484 51.8667 234.327 50.9733C234.888 50.7008 234.403 49.8417 233.844 50.1127Z" fill="#813E21"/>
<path d="M243.737 50.9413C243.478 52.6156 242.526 54.1603 241.147 55.0873C239.644 56.0978 237.7 56.1845 236.099 55.3879C235.614 55.1466 235.53 54.4688 235.759 54.026C236.018 53.5254 236.626 53.4497 237.08 53.6754C237.147 53.7082 237.154 53.7144 237.152 53.7152C237.161 53.7175 237.172 53.7214 237.21 53.7347C238.143 54.0658 239.15 53.9807 240.015 53.47C241.098 52.8312 241.69 51.6411 241.881 50.4041C241.966 49.8551 242.61 49.6044 243.07 49.7145C243.616 49.8457 243.816 50.4298 243.737 50.9413Z" fill="#813E21"/>
<path d="M267.971 37.219C267.221 36.8879 266.337 36.9105 265.604 37.2846C265.233 37.4744 263.432 38.898 264.149 39.3361C264.312 39.4353 264.512 39.4399 264.687 39.5134C265.021 39.6531 265.218 40.0335 265.244 40.4052C265.27 40.7769 265.155 41.1431 265.02 41.4883C264.885 41.8343 264.728 42.1755 264.665 42.5418C264.638 42.6956 264.646 42.8885 264.779 42.9619C264.933 43.047 265.109 42.9018 265.218 42.7612C265.591 42.2778 265.733 41.764 265.927 41.1962C266.103 40.6801 266.221 40.2974 265.976 39.75C265.787 39.3298 265.449 38.9925 265.042 38.8261C265.65 38.0195 266.658 37.5407 267.635 37.9718C268.111 38.1811 268.447 37.4291 267.971 37.219Z" fill="#813E21"/>
<path d="M240.632 36.5012C241.177 36.4919 241.73 36.4684 242.247 36.292C242.764 36.1155 243.248 35.7664 243.479 35.258C244.241 33.579 241.206 33.0503 240.136 33.0652C238.964 33.0816 237.748 34.1233 238.247 35.4665C238.608 36.4372 239.782 36.5153 240.632 36.5012Z" fill="#1A1A1A"/>
<path d="M224.848 39.1158C224.317 39.2392 223.775 39.3509 223.232 39.3056C222.689 39.2603 222.138 39.0385 221.797 38.6004C220.672 37.1541 223.5 35.9023 224.545 35.6563C225.686 35.3877 227.107 36.1038 226.929 37.5305C226.802 38.5614 225.678 38.9229 224.848 39.1158Z" fill="#1A1A1A"/>
<path d="M256.963 47.7551C256.963 50.0042 255.195 51.8269 253.014 51.8269C250.833 51.8269 249.066 50.0034 249.066 47.7551C249.066 45.5061 250.834 43.6826 253.014 43.6826C255.196 43.6826 256.963 45.5061 256.963 47.7551Z" fill="#DCA198"/>
<path d="M223.159 52.8046C223.159 55.0537 221.388 56.8811 219.207 56.8811C219.025 56.8811 218.851 56.8654 218.684 56.8342C217.261 54.3587 217.329 51.4771 217.798 49.0093C218.238 48.8297 218.707 48.736 219.207 48.736C221.388 48.736 223.159 50.5556 223.159 52.8046Z" fill="#DCA198"/>
<path d="M245.939 8.79405C245.939 8.79405 238.574 3.09174 231.21 6.299C223.844 9.50547 221.166 14.0434 214.089 11.8732C207.01 9.70304 202.133 9.70304 201.941 15.6217C201.749 21.5403 208.732 22.6258 208.732 22.6258C208.732 22.6258 201.559 26.5718 204.428 31.0106C207.298 35.4493 220.498 36.9292 229.392 25.8807C229.392 25.8807 228.723 31.6017 233.696 30.9114C238.67 30.221 242.592 21.5403 242.592 21.5403C242.592 21.5403 244.192 37.0588 252.634 36.502C257.212 36.2006 259.043 31.1089 259.043 31.1089C259.043 31.1089 260.115 37.675 267.194 35.4524C274.272 33.2299 267.365 22.2314 267.365 22.2314C267.365 22.2314 274.921 20.7758 274.347 16.4229C273.773 12.0708 260.669 7.87256 254.356 11.3524C254.356 11.3524 260.956 4.77073 257.704 3.29088C254.452 1.81103 250.626 10.591 250.626 10.591C250.626 10.591 249.861 -1.83823 246.799 0.232783C243.739 2.30457 245.939 8.79405 245.939 8.79405Z" fill="#2F3336"/>
<path d="M226.39 22.49C225.675 23.317 224.89 24.0847 223.982 24.6844C223.109 25.2615 221.955 25.8918 220.885 25.6668C220.446 25.5747 220.003 25.3162 219.791 24.8945C219.517 24.3486 219.692 23.6849 219.897 23.1468C220.291 22.1074 220.974 21.2148 221.808 20.5135C222.118 20.2527 221.78 19.7756 221.44 19.8607C220.254 20.159 218.914 20.4003 217.691 20.2441C216.607 20.1059 216.144 18.9454 216.473 17.9435C216.809 16.9166 217.77 16.2403 218.665 15.7757C219.797 15.1876 221.048 14.9018 222.312 14.8917C222.799 14.8878 222.8 14.1068 222.312 14.1107C220.774 14.1232 219.248 14.5184 217.91 15.3071C216.882 15.9123 215.861 16.8494 215.654 18.1114C215.478 19.1813 215.915 20.4175 216.94 20.8478C217.654 21.1476 218.512 21.0672 219.264 21.0079C219.645 20.9782 220.025 20.929 220.402 20.8681C219.064 22.515 217.907 25.203 220.193 26.2518C221.391 26.8008 222.744 26.2986 223.825 25.6903C225.012 25.0226 226.031 24.0784 226.928 23.0422C227.25 22.6681 226.716 22.1144 226.39 22.49Z" fill="#404040"/>
<path d="M262.69 19.6513C262.525 18.3096 262.057 17.0313 261.329 15.9075C261.059 15.4913 260.404 15.8818 260.675 16.3019C261.243 17.1804 261.645 18.1449 261.851 19.1812C262.032 20.0917 262.182 21.3287 261.736 22.1862C261.193 23.231 259.912 22.6859 259.132 22.2885C258.268 21.848 257.415 21.3295 256.941 20.4314C256.718 20.0097 256.194 20.3268 256.249 20.7321C256.431 22.0901 256.543 23.4591 256.58 24.8296C256.602 25.6597 256.605 27.0373 255.637 27.327C254.565 27.6479 253.578 26.3563 253.095 25.5574C252.46 24.5078 252.095 23.3146 252.022 22.0807C251.992 21.5817 251.234 21.5778 251.264 22.0807C251.353 23.5575 251.8 24.999 252.614 26.2235C253.281 27.2262 254.407 28.3843 255.709 28.1118C256.918 27.8588 257.294 26.5523 257.338 25.4395C257.383 24.2759 257.289 23.0889 257.154 21.9183C257.7 22.4118 258.358 22.7828 259.017 23.0951C259.99 23.5567 261.273 23.9136 262.109 22.9843C262.877 22.1299 262.821 20.7235 262.69 19.6513Z" fill="#404040"/>
<path d="M223.394 187.834C215.731 200.47 202.223 211.66 187.942 212.714C187.609 210.559 187.549 207.576 188.397 203.781C188.51 203.281 188.639 202.765 188.783 202.242C189.108 201.047 189.525 199.782 190.055 198.447C190.244 197.947 190.456 197.432 190.691 196.908C191.145 195.846 191.675 194.745 192.281 193.597C192.539 193.098 192.819 192.59 193.114 192.075C193.334 191.676 193.568 191.27 193.811 190.864C193.811 190.864 183.99 178.955 190.017 176.112C196.044 173.27 204.651 184.731 204.651 184.731C204.651 184.731 215.383 182.625 223.394 187.834Z" fill="#2F3336"/>
<path d="M187.943 212.711C188.016 213.179 188.098 213.619 188.189 214.006C188.57 215.619 188.962 217.077 191.688 216.332C217.249 209.339 226.128 190.079 226.128 190.079C225.272 189.196 224.35 188.46 223.393 187.836C215.73 200.468 202.224 211.664 187.943 212.711Z" fill="#FDFFF7"/>
<path d="M203.638 194.363C199.852 194.019 196.066 193.761 192.28 193.597C192.538 193.098 192.818 192.59 193.113 192.075C196.627 192.239 200.133 192.481 203.638 192.801C204.6 192.895 204.608 194.456 203.638 194.363Z" fill="#404040"/>
<path d="M201.784 199.236C197.884 198.876 193.977 198.611 190.055 198.447C190.244 197.947 190.456 197.432 190.691 196.909C194.401 197.073 198.096 197.33 201.784 197.674C202.753 197.76 202.76 199.322 201.784 199.236Z" fill="#404040"/>
<path d="M199.997 204.562C196.135 204.202 192.266 203.937 188.397 203.781C188.51 203.281 188.639 202.765 188.783 202.242C192.523 202.398 196.264 202.656 199.997 203C200.958 203.086 200.966 204.647 199.997 204.562Z" fill="#404040"/>
<path d="M263.382 184.753C262.515 199.629 267.221 216.827 278.259 226.231C279.743 224.674 281.47 222.281 282.915 218.682C283.103 218.207 283.289 217.71 283.466 217.198C283.874 216.03 284.246 214.751 284.566 213.346C284.693 212.826 284.81 212.279 284.913 211.712C285.14 210.575 285.328 209.362 285.481 208.064C285.552 207.503 285.61 206.921 285.66 206.326C285.705 205.87 285.742 205.399 285.773 204.923C285.773 204.923 300.472 201.1 297.162 195.179C293.853 189.257 279.81 194.31 279.81 194.31C279.81 194.31 272.837 185.304 263.382 184.753Z" fill="#2F3336"/>
<path d="M278.26 226.227C277.938 226.566 277.624 226.874 277.331 227.135C276.113 228.221 274.974 229.174 273.174 226.936C256.288 205.945 259.892 184.945 259.892 184.945C261.087 184.738 262.251 184.69 263.382 184.756C262.517 199.628 267.218 216.829 278.26 226.227Z" fill="#FDFFF7"/>
<path d="M275.799 201.891C279.076 203.877 282.304 205.932 285.48 208.064C285.551 207.503 285.609 206.922 285.659 206.326C282.705 204.357 279.713 202.456 276.678 200.619C275.841 200.12 274.957 201.387 275.799 201.891Z" fill="#404040"/>
<path d="M274.569 206.97C277.947 209.01 281.279 211.132 284.566 213.346C284.693 212.826 284.81 212.279 284.913 211.712C281.799 209.626 278.645 207.624 275.448 205.698C274.61 205.188 273.725 206.455 274.569 206.97Z" fill="#404040"/>
<path d="M273.027 212.377C276.375 214.395 279.675 216.494 282.915 218.682C283.103 218.207 283.289 217.71 283.466 217.198C280.332 215.088 277.14 213.059 273.906 211.105C273.074 210.6 272.19 211.867 273.027 212.377Z" fill="#404040"/>
<path d="M203.881 151.232C202.193 153.364 199.899 154.754 197.248 155.153C196.166 155.317 195.075 155.356 193.977 155.277C193.992 155.02 194.008 154.77 194.03 154.512C195.325 154.606 196.627 154.528 197.884 154.247C202.746 153.146 205.964 148.023 206.342 143.103C206.539 140.604 205.949 138.035 204.321 136.121C203.154 134.755 201.572 133.771 199.83 133.529C199.944 133.279 200.058 133.037 200.179 132.795C202.223 133.146 204.063 134.435 205.312 136.153C208.584 140.627 207.099 147.187 203.881 151.232Z" fill="#2C301C"/>
<path d="M202.362 139.638C200.85 140.596 199.446 141.735 198.188 143.025C197.842 143.381 198.378 143.933 198.724 143.578C199.938 142.331 201.284 141.237 202.744 140.312C203.159 140.049 202.778 139.374 202.362 139.638Z" fill="#2C301C"/>
<path d="M202.354 143.214C202.194 143.049 201.981 143.084 201.819 143.214C200.147 144.551 198.605 146.053 197.215 147.698C196.896 148.075 197.429 148.629 197.75 148.25C199.141 146.605 200.682 145.104 202.354 143.766C202.515 143.637 202.486 143.35 202.354 143.214Z" fill="#2C301C"/>
<path d="M304.3 158.018C304.263 158.276 304.225 158.526 304.187 158.784C301.658 158.331 299.462 156.964 297.834 154.918C294.616 150.865 293.124 144.305 296.403 139.831C297.69 138.074 299.576 136.77 301.673 136.449C301.764 136.699 301.855 136.941 301.938 137.199C300.181 137.433 298.568 138.417 297.387 139.8C295.759 141.713 295.176 144.282 295.366 146.781C295.752 151.701 298.97 156.824 303.831 157.925C303.99 157.964 304.141 157.995 304.3 158.018Z" fill="#2C301C"/>
<path d="M298.391 143.644C299.904 144.602 301.307 145.741 302.565 147.032C302.911 147.387 302.376 147.939 302.03 147.584C300.815 146.337 299.469 145.243 298.009 144.318C297.595 144.056 297.974 143.38 298.391 143.644Z" fill="#2C301C"/>
<path d="M298.399 147.22C298.559 147.055 298.773 147.09 298.935 147.22C300.607 148.557 302.148 150.059 303.539 151.704C303.857 152.081 303.324 152.636 303.003 152.256C301.613 150.611 300.071 149.11 298.399 147.772C298.237 147.643 298.268 147.356 298.399 147.22Z" fill="#2C301C"/>
<path d="M302.908 62.73L240.371 86.72L182.59 65.5414L188.526 56.8809C188.526 56.8809 213.9 57.7634 239.039 77.6067C239.039 77.6067 262.496 54.952 289.559 52.2266L292.989 54.9208L284.635 57.5556C284.635 57.5556 289.869 57.0918 294.995 56.5061L302.908 62.73Z" fill="#FDFFF7"/>
<path d="M240.37 86.7232C240.37 86.7232 242.974 81.5839 250.66 76.1104C261.912 68.0982 282.085 59.1472 304.685 62.727L295.667 123.09L245.944 127.391L198.078 123.09L181.097 62.727C181.097 62.727 233.461 73.2413 240.37 86.7232Z" fill="#E7B7A8"/>
<path d="M275.194 82.2649C271.455 84.9958 268.059 88.1976 265.099 91.8062C264.786 92.1873 265.319 92.7425 265.634 92.3583C268.551 88.802 271.891 85.6314 275.577 82.9396C275.971 82.6514 275.593 81.9736 275.194 82.2649Z" fill="#947DA9"/>
<path d="M279.231 89.0534C275.491 91.7843 272.095 94.9861 269.135 98.5948C268.823 98.9759 269.356 99.5311 269.671 99.1469C272.588 95.5906 275.927 92.42 279.614 89.7282C280.008 89.44 279.63 88.7622 279.231 89.0534Z" fill="#947DA9"/>
<path d="M282.476 95.9029C278.736 98.6338 275.34 101.836 272.38 105.444C272.067 105.825 272.6 106.381 272.915 105.996C275.833 102.44 279.172 99.2694 282.858 96.5776C283.252 96.2886 282.874 95.6116 282.476 95.9029Z" fill="#947DA9"/>
<path d="M213.712 87.3822C209.973 90.1131 206.576 93.3149 203.617 96.9236C203.304 97.3054 203.837 97.8599 204.152 97.4757C207.069 93.9194 210.409 90.7488 214.095 88.057C214.489 87.768 214.111 87.091 213.712 87.3822Z" fill="#947DA9"/>
<path d="M217.749 94.1708C214.009 96.9017 210.613 100.104 207.653 103.712C207.341 104.094 207.874 104.648 208.189 104.264C211.106 100.708 214.445 97.5374 218.131 94.8455C218.526 94.5574 218.148 93.8795 217.749 94.1708Z" fill="#947DA9"/>
<path d="M220.992 101.02C217.252 103.75 213.856 106.952 210.896 110.561C210.583 110.943 211.116 111.497 211.431 111.113C214.349 107.557 217.688 104.386 221.374 101.693C221.768 101.406 221.391 100.728 220.992 101.02Z" fill="#947DA9"/>
<path d="M234.044 119.545C233.937 118.871 233.824 118.198 233.708 117.524C233.636 117.107 233.563 116.69 233.49 116.273C232.916 112.995 232.361 109.713 231.829 106.427C231.798 106.238 231.767 106.049 231.737 105.859C231.588 104.935 231.439 104.012 231.29 103.088C231.118 102.018 230.947 100.948 230.776 99.8786C230.592 98.7244 230.408 97.571 230.226 96.4168C230.039 95.2407 229.854 94.0639 229.669 92.887C229.491 91.75 229.314 90.613 229.138 89.4759C228.979 88.4404 228.82 87.4049 228.664 86.3686C228.533 85.4964 228.404 84.6241 228.278 83.751C228.227 83.3957 228.177 83.0396 228.128 82.6835C228.078 82.3211 228.051 81.8541 227.715 81.637C227.518 81.5097 226.297 81.0084 225.927 80.8311C225.368 80.5625 224.805 80.3009 224.239 80.0455C222.86 79.4239 221.464 78.8421 220.053 78.3025C218.642 77.7629 217.217 77.2639 215.779 76.807C214.341 76.3502 212.891 75.9355 211.431 75.5638C209.97 75.1921 208.5 74.8617 207.021 74.5759C205.542 74.2893 204.055 74.0464 202.562 73.8465C201.077 73.6482 199.585 73.4928 198.09 73.3811C195.181 73.164 192.26 73.1179 189.345 73.2351C189.16 73.2429 189.046 73.3608 189.002 73.5021C188.924 73.5865 188.878 73.7036 188.914 73.8504C191.85 85.847 195.072 97.7686 198.58 109.6C199.069 111.25 199.567 112.897 200.063 114.544C200.299 115.33 200.533 116.116 200.758 116.905C200.968 117.649 201.137 118.412 201.413 119.135C201.452 119.238 201.495 119.342 201.569 119.422C201.707 119.57 201.873 119.539 202.053 119.557C202.162 119.568 202.265 119.567 202.375 119.567C202.596 119.568 202.818 119.568 203.039 119.569C203.482 119.57 203.926 119.571 204.369 119.573C205.256 119.576 206.142 119.58 207.029 119.587C207.916 119.594 208.803 119.603 209.69 119.616C210.577 119.63 211.464 119.648 212.351 119.67C213.237 119.693 214.124 119.722 215.01 119.757C215.896 119.792 216.782 119.834 217.668 119.884C218.553 119.934 219.438 119.993 220.322 120.06C221.206 120.128 222.089 120.205 222.971 120.293C223.854 120.381 224.735 120.48 225.615 120.591C226.056 120.647 226.496 120.706 226.935 120.768C228.235 120.951 229.531 121.165 230.822 121.411C231.36 121.513 231.897 121.621 232.433 121.735C232.698 121.791 232.962 121.848 233.226 121.907C233.465 121.96 233.713 122.051 233.959 122.011C234.124 121.984 234.436 121.873 234.399 121.653C234.346 121.331 234.098 119.883 234.044 119.545ZM208.998 118.83C206.688 118.799 204.377 118.793 202.067 118.788C202.016 118.588 201.954 118.406 201.933 118.324C201.509 116.712 201.028 115.117 200.546 113.522C199.585 110.341 198.642 107.155 197.721 103.962C195.869 97.5413 194.1 91.094 192.415 84.6241C191.495 81.0912 190.604 77.5512 189.734 74.0051C199.698 73.6544 209.694 75.2741 219.077 78.7546C221.792 79.762 227.222 82.2868 227.303 82.2649C228.746 94.0732 229.98 100.18 232.007 112.131C232.295 113.831 232.592 115.528 232.887 117.226C233.028 118.036 233.167 118.846 233.295 119.658C233.364 120.093 233.429 120.529 233.492 120.964C233.503 121.037 233.513 121.11 233.523 121.182C225.472 119.388 217.214 118.941 208.998 118.83Z" fill="#DE938C"/>
<path d="M233.349 80.1188L241.104 126.955C241.104 126.955 246.559 132.78 252.344 126.842L245.29 80.5765C245.29 80.5765 242.301 81.8954 238.849 81.79C237.02 81.7346 235.096 81.2559 233.349 80.1188Z" fill="#DE938C"/>
<path d="M295.087 71.05C288.832 71.1281 282.578 71.6045 276.414 72.7134C270.516 73.7833 264.716 75.4466 259.196 77.8519C258.742 78.0471 258.295 78.2501 257.84 78.461C256.5 79.0857 255.183 79.7495 253.88 80.468C253.229 80.8272 252.593 81.1942 251.957 81.5769C251.631 81.7643 251.321 81.9595 251.003 82.1548C250.579 82.4203 250.329 82.8498 250.359 83.3652C250.382 83.6932 250.488 84.0056 250.541 84.3257C250.602 84.7162 250.67 85.1145 250.73 85.5049C250.859 86.3015 250.988 87.0902 251.117 87.8789C251.366 89.4564 251.616 91.0417 251.866 92.6191C252.116 94.2044 252.366 95.7819 252.608 97.3672C252.851 98.9524 253.093 100.53 253.335 102.115C253.57 103.7 253.805 105.286 254.039 106.863C254.274 108.448 254.509 110.034 254.736 111.619C255.13 114.337 255.508 117.054 255.887 119.772C255.91 119.944 256.031 120.045 256.205 120.045C256.493 120.061 256.75 119.912 257.023 119.85C257.318 119.78 257.606 119.702 257.893 119.631C258.499 119.475 259.113 119.342 259.726 119.21C260.96 118.96 262.202 118.757 263.444 118.569C264.693 118.39 265.935 118.233 267.184 118.077C267.707 118.015 268.229 117.945 268.752 117.882C272.916 117.351 277.096 116.929 281.276 116.617C282.737 116.5 284.198 116.406 285.652 116.32C286.637 116.266 287.613 116.226 288.598 116.164C288.658 116.164 288.719 116.156 288.779 116.141C288.931 116.094 289.044 115.977 289.075 115.813C290.703 106.238 293.012 89.1206 294.458 79.5152C294.867 76.7976 295.216 74.447 295.609 71.7294C295.662 71.3702 295.322 71.0266 295.087 71.05ZM290.438 100.139C290.014 102.732 288.87 112.252 288.378 115.399C279.92 115.797 271.478 116.625 263.103 117.882C260.907 118.21 258.711 118.585 256.568 119.186C255.228 109.557 253.82 100.108 252.336 90.7293C251.927 88.1601 251.51 85.583 251.086 83.0138C255.947 79.9526 261.195 77.6098 266.632 75.9074C272.507 74.0644 278.58 72.9477 284.683 72.3698C288.06 72.0418 291.445 71.8856 294.829 71.8388C293.451 81.2879 291.99 90.7215 290.438 100.139Z" fill="#DE938C"/>
<path d="M308.736 88.6115C308.657 88.3655 308.568 88.1226 308.469 87.8829C307.22 84.8631 304.381 82.6929 301.22 82.3219C299.426 82.1111 297.29 83.2794 297.192 85.3519C297.137 86.5202 297.83 87.5698 298.491 88.5194C297.449 88.3163 296.444 89.1777 295.825 90.0656C295.206 90.9519 294.875 92.0819 295.064 93.1573C295.254 94.2318 296.01 95.2166 297.029 95.518C295.611 95.6703 294.216 96.8846 293.579 98.1997C293.449 98.466 293.346 98.7487 293.302 99.0431C293.193 99.7818 293.47 100.538 293.901 101.139C294.331 101.74 294.905 102.213 295.473 102.678C294.553 103.044 293.649 103.975 293.24 104.901C293.062 105.302 292.95 105.742 292.976 106.182C293.04 107.234 293.873 108.075 294.772 108.576C297.462 110.073 300.954 109.315 303.349 107.357C306.922 104.435 308.643 99.2258 309.16 94.7011C309.392 92.6645 309.361 90.5482 308.736 88.6115Z" fill="#FFDAC3"/>
<path d="M305.018 90.5482C303.067 89.7048 301.078 88.9614 299.057 88.3195C298.589 88.1711 298.39 88.9247 298.855 89.0723C300.876 89.7142 302.866 90.4584 304.817 91.301C305.007 91.383 305.231 91.2128 305.282 91.0285C305.345 90.8036 305.206 90.6287 305.018 90.5482Z" fill="#813E21"/>
<path d="M303.671 96.3591C301.605 95.8929 299.518 95.5313 297.418 95.2759C296.932 95.2166 296.868 95.9952 297.351 96.0545C299.451 96.3099 301.538 96.6714 303.605 97.1377C303.806 97.1829 303.997 96.9737 304.015 96.7831C304.038 96.5496 303.87 96.4036 303.671 96.3591Z" fill="#813E21"/>
<path d="M301.437 102.379C299.328 102.222 298.126 102.259 296.012 102.316C295.524 102.329 295.568 103.109 296.055 103.096C298.169 103.039 299.37 103.002 301.48 103.159C301.686 103.175 301.846 102.939 301.836 102.748C301.826 102.514 301.64 102.395 301.437 102.379Z" fill="#813E21"/>
<path d="M183.143 90.745C183.223 90.499 183.311 90.2562 183.41 90.0164C184.66 86.9966 187.499 84.8264 190.66 84.4555C192.454 84.2454 194.59 85.4129 194.687 87.4854C194.743 88.6537 194.05 89.7033 193.388 90.6529C194.431 90.4498 195.436 91.3112 196.055 92.1991C196.674 93.0854 197.004 94.2154 196.815 95.2908C196.626 96.3653 195.869 97.3501 194.851 97.6515C196.268 97.8038 197.664 99.0181 198.301 100.333C198.43 100.599 198.533 100.882 198.577 101.177C198.687 101.915 198.41 102.671 197.979 103.273C197.548 103.874 196.974 104.346 196.407 104.812C197.328 105.177 198.23 106.108 198.641 107.034C198.818 107.436 198.931 107.875 198.904 108.315C198.841 109.368 198.008 110.209 197.108 110.709C194.419 112.206 190.926 111.449 188.531 109.49C184.958 106.568 183.237 101.359 182.721 96.8347C182.487 94.798 182.519 92.6817 183.143 90.745Z" fill="#FFDAC3"/>
<path d="M186.862 92.6817C188.812 91.8383 190.801 91.0948 192.823 90.4529C193.29 90.3045 193.489 91.0581 193.024 91.2057C191.003 91.8476 189.014 92.5918 187.063 93.4345C186.873 93.5165 186.649 93.3454 186.597 93.1619C186.535 92.9378 186.674 92.7629 186.862 92.6817Z" fill="#813E21"/>
<path d="M188.206 98.4926C190.272 98.0263 192.359 97.6648 194.46 97.4094C194.945 97.3501 195.009 98.1286 194.526 98.188C192.425 98.4434 190.338 98.8049 188.272 99.2711C188.071 99.3164 187.88 99.1071 187.862 98.9166C187.84 98.6839 188.008 98.5378 188.206 98.4926Z" fill="#813E21"/>
<path d="M190.44 104.513C192.55 104.357 193.752 104.393 195.866 104.45C196.354 104.464 196.309 105.244 195.823 105.23C193.709 105.173 192.508 105.137 190.398 105.294C190.192 105.309 190.032 105.073 190.041 104.882C190.051 104.649 190.237 104.528 190.44 104.513Z" fill="#813E21"/>
<path d="M100.336 272.763C99.442 277.362 98.0033 279.416 98.0033 279.416C98.0033 279.416 96.8676 279.479 94.9443 279.502C94.2022 279.51 93.339 279.518 92.3774 279.502C89.8635 279.486 86.6909 279.393 83.2381 279.119C82.8443 279.088 82.443 279.049 82.0341 279.01C81.4814 278.963 80.921 278.916 80.3607 278.854C78.8993 278.705 77.4077 278.518 75.916 278.292C74.5833 278.089 73.2507 277.846 71.9332 277.565C71.2744 277.433 70.6232 277.292 69.9796 277.128C69.813 277.089 69.654 277.05 69.4874 277.011C67.2234 276.441 64.7777 275.707 62.2941 274.902C61.9079 274.777 61.5293 274.645 61.1431 274.52C60.5222 274.317 59.9013 274.106 59.288 273.895C58.4702 273.614 57.6525 273.325 56.8498 273.028C56.4561 272.888 56.0624 272.747 55.6762 272.606C47.9377 269.78 41.3728 266.929 41.3728 266.929C41.3728 266.929 41.3501 266.898 41.3122 266.835C41.3122 266.835 41.3046 266.835 41.3046 266.828C41.0321 266.445 40.0023 264.969 38.5333 262.689C37.9579 261.791 37.3067 260.775 36.61 259.643C36.61 259.635 36.61 259.628 36.6025 259.62C35.7014 258.144 34.7019 256.512 33.6646 254.7C33.1118 253.739 32.5515 252.74 31.9836 251.709C30.348 248.749 28.6671 245.493 27.077 242.065C25.8882 239.511 24.76 236.864 23.7377 234.177C22.3445 230.515 21.1557 226.782 20.3304 223.112C19.8609 221.034 19.5126 218.973 19.3006 216.966C18.869 212.928 19.0129 209.071 19.9518 205.58C20.2698 204.346 20.7014 203.167 21.2314 202.034C22.2461 199.879 23.6545 197.919 25.5096 196.216C25.9033 195.857 26.3198 195.506 26.7589 195.17C27.3647 194.709 28.0159 194.264 28.7049 193.843C30.9387 192.484 33.3844 191.765 35.9816 191.578C37.4051 191.476 38.8665 191.531 40.3733 191.742C42.9099 192.078 45.5449 192.827 48.2405 193.936C48.71 194.124 49.187 194.327 49.6641 194.545C50.3834 194.866 51.1103 195.217 51.8448 195.584C51.9584 195.639 52.0719 195.701 52.1855 195.764C53.9498 196.669 55.7368 197.708 57.5313 198.856C57.5692 198.879 57.5995 198.903 57.6373 198.926C57.8039 199.036 57.9705 199.145 58.1371 199.254C61.2719 201.3 64.3991 203.69 67.4506 206.283C67.4581 206.29 67.4657 206.29 67.4733 206.298C67.7762 206.556 68.079 206.814 68.3743 207.079C68.3895 207.087 68.3971 207.095 68.4046 207.11C69.7297 208.258 71.0397 209.445 72.3269 210.664C74.9544 213.147 77.491 215.763 79.8913 218.426C81.9508 220.714 83.912 223.041 85.7292 225.345C88.1825 228.453 90.3784 231.522 92.2562 234.451C93.9221 237.051 95.3305 239.534 96.436 241.815C97.496 244.017 98.2684 246.039 98.7075 247.797C99.0407 249.124 99.3284 250.413 99.5783 251.646C101.562 261.4 101.206 268.288 100.336 272.763Z" fill="#2F3336"/>
<path d="M73.6627 268.741C64.0282 270.502 41.3752 266.931 41.3752 266.931C39.561 267.508 37.9262 268.3 36.4496 269.216C39.801 271.167 41.7606 274.549 42.6056 278.345H77.1685C76.2864 270.903 73.6627 268.741 73.6627 268.741Z" fill="#9FBEC2"/>
<path d="M36.4477 269.216C32.8071 271.476 30.16 274.511 28.3844 277.096C28.1186 277.483 27.871 277.907 27.6575 278.344H42.603C41.7579 274.548 39.7991 271.167 36.4477 269.216Z" fill="#FDFFF7"/>
<path d="M74.0625 282.48C70.4129 282.636 64.0373 282.878 56.17 283.073C54.4512 283.112 52.6567 283.151 50.8015 283.19C44.6607 283.308 37.8838 283.378 30.9252 283.354C26.4653 283.331 26.541 280.637 27.6617 278.341H77.167C77.1746 278.388 77.1746 278.427 77.1898 278.474C77.1973 278.552 77.2125 278.638 77.2201 278.723C77.4245 280.676 75.9707 282.394 74.0625 282.48Z" fill="#FDFFF7"/>
<path d="M72.5703 267.89C72.6158 267.968 72.6612 268.038 72.7066 268.116C74.5769 271.068 69.9883 273.809 68.1332 270.873C68.0272 270.709 67.9212 270.537 67.8152 270.373C65.9525 271.552 64.2109 272.934 62.6587 274.52C62.5375 274.645 62.4088 274.777 62.2952 274.902C61.3184 275.925 60.4325 277.034 59.6375 278.214C59.6072 278.253 59.5845 278.299 59.5542 278.338C58.585 279.822 58.0019 281.415 57.6839 283.071C55.9651 283.11 54.1705 283.149 52.3154 283.188C52.5123 281.525 52.906 279.9 53.5496 278.338C53.9509 277.347 54.4507 276.386 55.064 275.457C55.6243 274.613 56.2149 273.801 56.851 273.028C56.957 272.888 57.0706 272.747 57.1917 272.606C59.4482 269.92 62.1059 267.663 65.0211 265.812C57.9413 253.981 50.6496 240.315 46.7803 227.071C43.8954 217.216 43.9181 202.237 52.1867 195.764C53.9509 196.669 55.7379 197.708 57.5325 198.856C57.5703 198.879 57.6006 198.903 57.6385 198.926C57.805 199.036 57.9716 199.145 58.1382 199.254C45.6672 203.682 51.9671 224.478 55.2533 233.287C59.1377 243.728 64.0746 253.732 69.7384 263.259C70.2003 263.056 70.6546 262.837 71.1241 262.642C74.2816 261.346 75.6445 266.578 72.5703 267.89Z" fill="#1A1A1A"/>
<path d="M150.673 251.061C150.756 252.67 150.756 254.591 150.544 256.66C149.62 265.672 144.638 277.55 125.261 279.416L74.6883 200.191C74.6883 200.191 88.2117 171.36 145.63 177.232C145.63 177.232 148.053 177.49 151.612 178.466C152.513 178.716 153.489 179.005 154.519 179.356C161.281 181.652 170.292 186.299 175.547 195.475C184.754 211.562 184.754 222.542 184.754 222.542L150.059 246.227C150.059 246.227 150.506 248.14 150.673 251.061Z" fill="#9FBEC2"/>
<path d="M151.614 178.466C142.505 181.527 133.312 184.331 124.067 186.908C122.939 187.22 121.682 187.587 120.925 188.587C120.304 189.422 120.084 190.664 120.743 191.547C120.796 191.617 120.864 191.656 120.925 191.679C120.985 191.742 121.068 191.781 121.174 191.773C126.255 191.586 131.313 190.68 136.144 189.04C140.945 187.408 145.511 185.065 149.933 182.55C151.546 181.629 153.151 180.621 154.521 179.356C153.492 179.005 152.515 178.716 151.614 178.466Z" fill="#D97320"/>
<path d="M150.545 256.662C149.333 256.381 148.137 256.038 146.963 255.616C142.132 253.89 138.271 250.798 134.401 247.447C126.617 240.7 119.538 232.493 119.356 221.45C119.303 217.921 124.603 217.936 124.656 221.45C124.815 230.97 131.516 237.834 138.149 243.582C141.655 246.62 145.116 249.345 149.553 250.735C149.924 250.852 150.302 250.962 150.673 251.063C150.757 252.672 150.757 254.593 150.545 256.662Z" fill="#D97320"/>
<path d="M98.7557 165.85C98.7557 165.85 89.2923 183.619 111.433 188.868C133.573 194.116 161.875 178.274 163.481 165.85C165.802 147.887 129.645 139.425 98.7557 165.85Z" fill="#9FBEC2"/>
<path d="M136.697 199.239C141.871 202.279 145.185 205.107 148.317 208.382C153.886 214.204 158.969 220.893 166.105 224.457C167.689 225.247 169.36 225.876 170.819 226.89C169.295 228.049 167.252 228.123 165.362 228.002C156.419 227.43 147.975 223.533 140.265 218.824C136.787 216.7 133.379 214.371 130.585 211.358C127.655 208.197 122.665 200.764 129.217 198.074C131.041 197.325 135.216 198.369 136.697 199.239Z" fill="#D97320"/>
<path d="M129.217 176.506C129.217 176.506 141.305 167.567 137.206 162.948C133.154 158.382 117.592 168.933 117.579 169.478C117.567 170.024 129.217 176.506 129.217 176.506Z" fill="#3B6A70"/>
<path d="M109.863 175.907C109.83 177.046 109.705 178.18 109.449 179.222C113.239 180.775 121.093 182.435 129.219 176.506C128.4 174.669 126.019 170.506 125.265 168.168C124.591 166.075 124.19 164.178 124.477 163.17C125.348 160.14 109.099 168.16 109.099 168.16C109.099 168.16 109.984 172.026 109.863 175.907Z" fill="#FFDAC3"/>
<path d="M124.475 163.17C125.345 160.14 109.096 168.16 109.096 168.16C109.096 168.16 109.982 172.026 109.861 175.907C110.716 175.86 111.572 175.665 112.375 175.478C114.199 175.048 115.971 174.416 117.66 173.603C120.439 172.276 123.081 170.425 125.262 168.168C124.588 166.075 124.187 164.178 124.475 163.17Z" fill="#FFB88C"/>
<path d="M49.5478 176.899L56.4428 170.102C56.4428 170.102 73.9673 176.81 77.1422 186.043C77.1422 186.043 87.9315 172.622 114.328 171.585L121.718 178.721L79.4244 193.848L49.5478 176.899Z" fill="#FDFFF7"/>
<path d="M47.8833 175.432C53.2601 177.556 70.983 184.935 75.4656 191.58C75.4656 191.58 76.6339 199.91 76.0494 199.61C75.4656 199.311 53.9431 200.17 53.9431 200.17L46.8202 176.467C46.6188 175.798 47.2487 175.182 47.8833 175.432Z" fill="#E0A9A4"/>
<path d="M76.0502 195.875C75.7253 195.336 91.288 178.046 122.166 176.9C123.073 176.866 123.814 177.65 123.773 178.586L121.001 241.816L76.0502 195.875Z" fill="#E0A9A4"/>
<path d="M72.7846 194.775V188.686C72.7846 188.686 79.3502 187.44 82.4047 189.9L83.1195 199.774L72.7846 194.775Z" fill="#EB7A68"/>
<path d="M92.2921 135.809C92.2512 139.619 91.3918 148.157 85.3145 156.87L115.671 160.264C117.325 157.317 125.707 141.475 121.231 130.653L92.2921 135.809Z" fill="#3F2C24"/>
<path d="M135.963 148.255C135.988 148.945 135.966 149.624 135.881 150.283C135.408 153.972 134.26 157.655 132.208 160.74C126.702 169.013 116.195 170.492 107.188 170.024C99.3893 169.618 95.5655 167.243 93.877 164.276C92.4534 161.8 92.5216 158.919 92.991 156.451C93.3848 154.436 94.036 152.695 94.3767 151.68C95.0885 149.524 94.2934 146.151 93.4756 143.652C92.4534 140.505 92.7033 137.006 94.3464 134.156C100.207 124.012 115.275 125.409 121.507 126.268C125.007 126.752 127.351 129.715 129.93 131.854C132.395 133.899 133.635 137.981 134.536 141.036C135.189 143.254 135.873 145.82 135.963 148.255Z" fill="#FFDAC3"/>
<path d="M113.592 147.34C114.015 148.634 113.652 149.928 112.782 150.231C111.912 150.533 110.864 149.73 110.441 148.436C110.018 147.142 110.38 145.848 111.251 145.545C112.122 145.242 113.17 146.046 113.592 147.34Z" fill="#1A1A1A"/>
<path d="M98.7207 149.338C99.1433 150.632 98.7806 151.926 97.9105 152.229C97.0405 152.531 95.9926 151.727 95.5693 150.433C95.1468 149.139 95.5095 147.845 96.3795 147.542C97.2495 147.24 98.2982 148.044 98.7207 149.338Z" fill="#1A1A1A"/>
<path d="M104.577 155.941C103.231 156.593 101.678 155.569 101.678 154.047C101.678 152.425 103.286 151.784 104.536 151.337C104.776 151.252 104.957 150.998 104.876 150.727C104.491 149.451 104.161 148.16 103.884 146.855C103.753 146.23 102.821 146.49 102.954 147.115C103.198 148.272 103.493 149.415 103.822 150.548C103.062 150.834 102.31 151.172 101.709 151.74C100.978 152.431 100.619 153.427 100.741 154.442C100.999 156.574 103.217 157.694 105.06 156.802C105.621 156.529 105.136 155.67 104.577 155.941Z" fill="#8E726E"/>
<path d="M113.239 156.199C113.251 157.894 112.557 159.579 111.344 160.727C110.023 161.978 108.119 162.394 106.413 161.879C105.896 161.724 105.705 161.069 105.86 160.594C106.035 160.056 106.623 159.879 107.106 160.024C107.177 160.045 107.186 160.05 107.183 160.051C107.192 160.052 107.205 160.054 107.244 160.061C108.217 160.229 109.197 159.975 109.968 159.324C110.934 158.51 111.329 157.236 111.321 155.984C111.318 155.428 111.913 155.072 112.385 155.103C112.945 155.14 113.236 155.681 113.239 156.199Z" fill="#C74632"/>
<path d="M111.603 140.826C112.147 140.818 112.7 140.794 113.217 140.617C113.734 140.441 114.218 140.092 114.449 139.583C115.212 137.904 112.177 137.376 111.105 137.39C109.934 137.407 108.718 138.449 109.217 139.792C109.578 140.762 110.753 140.841 111.603 140.826Z" fill="#482E23"/>
<path d="M95.9991 143.441C95.4683 143.564 94.9254 143.676 94.3825 143.631C93.8396 143.585 93.2891 143.364 92.9484 142.926C91.8232 141.479 94.6513 140.227 95.6955 139.981C96.8373 139.713 98.2578 140.429 98.0799 141.856C97.9527 142.886 96.829 143.248 95.9991 143.441Z" fill="#482E23"/>
<path d="M133.95 118.142C133.95 118.142 126.914 103.417 105.313 112.332C83.3067 121.414 87.3979 140.828 87.3979 140.828C87.3979 140.828 94.6215 138.431 102.943 136.548C102.958 134.174 103.246 130.356 104.722 127.787C104.722 127.787 105.79 132.675 106.653 135.768C111.923 134.737 117.269 134.065 121.244 134.448C121.244 134.448 125.242 145.168 120.176 158.627L150.389 154.069C151.627 149.479 159.487 117.046 133.95 118.142Z" fill="#3F2C24"/>
<path d="M103.838 117.317C99.0068 120.212 95.8743 125.733 95.7857 131.494C95.7781 131.997 96.5353 131.997 96.5429 131.494C96.6269 126.005 99.6186 120.749 104.221 117.992C104.642 117.739 104.261 117.064 103.838 117.317Z" fill="#322E2C"/>
<path d="M115.729 115.722C112.014 118.05 109.504 122.087 108.961 126.528C108.9 127.025 109.657 127.02 109.718 126.528C110.226 122.372 112.645 118.568 116.11 116.396C116.527 116.136 116.147 115.46 115.729 115.722Z" fill="#322E2C"/>
<path d="M121.972 118.073C118.257 120.401 115.747 124.438 115.204 128.879C115.144 129.376 115.901 129.372 115.962 128.879C116.47 124.723 118.888 120.919 122.354 118.747C122.77 118.487 122.39 117.811 121.972 118.073Z" fill="#322E2C"/>
<path d="M136.833 130.365C136.63 129.909 135.978 130.305 136.18 130.76C138.8 136.645 140.002 143.146 139.696 149.613C139.673 150.115 140.43 150.114 140.453 149.613C140.765 143.002 139.51 136.377 136.833 130.365Z" fill="#322E2C"/>
<path d="M143.417 126.679C143.194 126.233 142.559 126.66 142.781 127.103C145.657 132.86 147.144 139.297 147.124 145.772C147.122 146.275 147.879 146.238 147.88 145.736C147.901 139.119 146.355 132.56 143.417 126.679Z" fill="#322E2C"/>
<path d="M162.714 252.734C144.662 257.428 132.486 243.348 126.361 233.391C126.224 233.172 126.096 232.961 125.967 232.743C123.922 229.346 122.613 226.503 122.045 225.191C121.825 224.691 121.719 224.41 121.719 224.41C134.766 211.103 128.42 198.085 128.42 198.085C128.822 197.968 129.253 197.913 129.73 197.937C132.138 198.031 135.417 199.866 138.938 202.583C139.195 202.786 139.46 202.997 139.725 203.208C143.42 206.168 147.312 210.018 150.697 213.774C153.067 216.406 155.793 218.577 158.769 220.24C159.056 220.404 159.352 220.568 159.647 220.716C160.722 221.279 161.828 221.778 162.956 222.2C163.35 222.349 163.743 222.489 164.137 222.622C169.43 224.395 175.177 224.73 180.803 223.45L184.755 222.544C184.755 222.544 189.859 245.667 162.714 252.734Z" fill="#9FBEC2"/>
<path d="M134.44 224.527C132.282 227.956 129.526 230.962 126.361 233.391C126.225 233.172 126.096 232.961 125.967 232.743C126.702 232.173 127.421 231.571 128.11 230.939C133.138 226.347 136.689 220.154 138.234 213.415C138.999 210.065 139.415 206.207 138.938 202.583C139.196 202.786 139.461 202.997 139.726 203.208C139.756 203.466 139.779 203.724 139.794 203.981C140.309 211.127 138.211 218.553 134.44 224.527Z" fill="#D97320"/>
<path d="M164.326 237.194C161.827 231.79 159.957 226.097 158.768 220.24C159.056 220.404 159.351 220.568 159.646 220.716C160.82 226.269 162.614 231.665 164.984 236.803C165.189 237.256 164.538 237.647 164.326 237.194Z" fill="#D97320"/>
<path d="M172.99 236.101C169.401 231.657 166.047 227.018 162.958 222.2C163.351 222.349 163.745 222.489 164.139 222.622C167.046 227.097 170.181 231.415 173.528 235.546C173.839 235.929 173.308 236.483 172.99 236.101Z" fill="#D97320"/>
<path d="M127.594 272.765C126.701 277.365 125.262 279.419 125.262 279.419C125.262 279.419 124.127 279.481 122.203 279.504C119.508 279.536 115.267 279.504 110.497 279.122C109.558 279.044 108.596 278.958 107.62 278.856C106.158 278.708 104.667 278.52 103.175 278.294C101.842 278.091 100.51 277.849 99.1921 277.568C98.3668 277.404 97.549 277.216 96.7464 277.013C85.2067 274.124 68.6318 266.932 68.6318 266.932C68.6318 266.932 68.609 266.9 68.5712 266.838C68.5712 266.838 68.5636 266.838 68.5636 266.83C68.291 266.447 67.2612 264.971 65.7923 262.691C64.0583 260.005 61.7034 256.202 59.2425 251.711C57.607 248.752 55.926 245.495 54.3359 242.067C53.1471 239.513 52.0189 236.866 50.9967 234.18C49.6035 230.517 48.4147 226.784 47.5893 223.114C45.8553 215.406 45.6888 207.972 48.4904 202.037C49.717 199.421 51.5267 197.101 54.0179 195.172C54.6237 194.712 55.2748 194.267 55.9639 193.845C59.4167 191.744 63.3768 191.159 67.6323 191.744C70.6156 192.135 73.7352 193.111 76.923 194.548C84.4723 197.914 92.3698 203.825 99.5859 210.666C102.213 213.149 104.75 215.765 107.15 218.428C109.21 220.716 111.171 223.044 112.988 225.347C115.441 228.455 117.637 231.524 119.515 234.453C121.181 237.053 122.589 239.537 123.695 241.817C124.755 244.019 125.527 246.042 125.966 247.799C126.3 249.126 126.587 250.415 126.837 251.649C128.821 261.403 128.465 268.29 127.594 272.765Z" fill="#2F3336"/>
<path d="M93.9593 248.033C100.691 261.215 104.711 273.546 107.619 278.856C106.158 278.708 104.666 278.52 103.174 278.294C99.926 276.701 96.7458 275.147 96.7458 275.147L100.918 268.743C100.918 268.743 96.1628 257.881 90.0068 246.612C84.0855 235.788 76.8998 224.566 73.7725 220.404C73.4545 219.975 73.4697 219.373 73.8255 218.975C74.0376 218.725 74.3329 218.608 74.6282 218.608C74.9462 218.608 75.2642 218.749 75.4762 219.037C78.24 222.747 87.6595 235.695 93.9593 248.033Z" fill="#1A1A1A"/>
<path d="M100.92 268.741C91.2857 270.502 68.6328 266.931 68.6328 266.931C66.8185 267.508 65.1837 268.3 63.7072 269.216C67.0586 271.167 69.0182 274.549 69.8632 278.345H104.426C103.544 270.903 100.92 268.741 100.92 268.741Z" fill="#9FBEC2"/>
<path d="M63.7074 269.216C60.0668 271.476 57.4196 274.511 55.6448 277.096C55.379 277.483 55.1314 277.907 54.9179 278.344H69.8634C69.0176 274.548 67.0587 271.167 63.7074 269.216Z" fill="#FDFFF7"/>
<path d="M104.429 278.344H54.92C53.7979 280.64 53.7229 283.334 58.1851 283.35C76.8325 283.42 94.2169 282.78 101.324 282.477C103.227 282.396 104.687 280.677 104.477 278.725C104.463 278.592 104.444 278.474 104.429 278.344Z" fill="#FDFFF7"/>
<path d="M132.592 203.942C132.471 203.029 132.259 202.146 131.948 201.326C131.07 200.03 129.904 199.046 128.541 198.359C126.459 197.304 123.93 196.961 121.31 197.297C113.321 198.312 103.001 202.927 103.917 205.246C105.363 208.893 111.42 207.164 111.42 207.164C111.42 207.164 104.038 211.033 105.802 213.165C107.514 215.234 112.874 214.235 113.223 214.172C112.806 214.344 105.06 217.686 107.991 219.295C110.08 220.443 114.207 219.389 114.548 219.303C114.162 219.522 109.149 222.372 111.027 223.996C112.503 225.269 117.622 224.887 121.817 224.309C122.559 224.207 123.263 224.098 123.922 223.996C123.922 223.996 123.93 224.004 123.93 223.996C124.255 223.778 124.573 223.543 124.891 223.301C126.807 221.833 128.435 220.029 129.692 217.936C132.175 213.805 133.22 208.753 132.592 203.942Z" fill="#FFDAC3"/>
<path d="M117.055 204.838C115.616 205.246 113.176 206.013 111.738 206.422C111.269 206.554 111.448 207.313 111.919 207.18C113.358 206.771 115.799 206.005 117.236 205.596C117.705 205.463 117.526 204.704 117.055 204.838Z" fill="#C74632"/>
<path d="M118.858 212.037C117.434 212.498 115.022 213.354 113.598 213.815C113.135 213.965 113.339 214.717 113.806 214.566C115.23 214.105 117.642 213.249 119.066 212.788C119.529 212.638 119.324 211.886 118.858 212.037Z" fill="#C74632"/>
<path d="M120.258 217.194C118.816 217.59 116.369 218.335 114.928 218.731C114.458 218.859 114.63 219.62 115.103 219.49C116.545 219.094 118.991 218.349 120.433 217.954C120.903 217.825 120.73 217.063 120.258 217.194Z" fill="#C74632"/>
<path d="M132.592 203.942C132.471 203.028 132.259 202.146 131.949 201.326C131.457 200.038 130.73 198.882 129.73 197.937C129.253 197.913 128.822 197.968 128.42 198.085C128.42 198.085 128.466 198.179 128.541 198.359C129.352 200.287 133.637 212.165 121.817 224.309C121.787 224.34 121.749 224.379 121.719 224.41C121.719 224.41 121.825 224.691 122.045 225.191C122.688 224.824 123.309 224.426 123.922 223.996C123.922 223.996 123.93 224.004 123.93 223.996C124.256 223.778 124.574 223.543 124.892 223.301C126.807 221.833 128.435 220.029 129.692 217.936C132.176 213.805 133.221 208.753 132.592 203.942Z" fill="#1A1A1A"/>
</svg>
